<svg width="142" height="56" viewBox="0 0 142 56" fill="none" xmlns="http://www.w3.org/2000/svg">
<g clip-path="url(#clip0_908_23)">
<path d="M130.061 42.0113C127.8 41.4307 125.828 40.9557 125.828 39.0821C125.828 37.6043 126.932 36.7071 128.72 36.7071C130.509 36.7071 131.744 37.6835 132.165 39.3724L136.609 37.2349C135.452 34.2529 132.56 32.4849 128.852 32.4849C124.092 32.4849 120.753 35.414 120.753 39.5835C120.753 44.7029 124.46 45.6529 127.721 46.4974C130.009 47.0779 131.981 47.6057 131.981 49.5321C131.981 51.1154 130.719 52.1446 128.747 52.1446C126.774 52.1446 125.17 51.0626 124.723 49.4793L120.279 51.6168C121.515 54.546 124.671 56.3404 128.536 56.3404C133.717 56.3404 137.056 53.4376 137.056 48.9515C137.109 43.7793 133.191 42.8029 130.061 42.0113Z" fill="#C89B3C"/>
<path d="M131.113 22.1931H133.69V18.6834H136.32L136.977 16.3875H133.69V14.1709H137.424V11.8223H131.113V22.1931Z" fill="#C89B3C"/>
<path d="M124.618 22.5098C127.59 22.5098 130.035 20.0821 130.035 17.1265C130.035 14.1446 127.616 11.7432 124.618 11.7432C121.647 11.7432 119.201 14.1709 119.201 17.1265C119.227 20.0821 121.647 22.5098 124.618 22.5098ZM124.618 14.2237C126.222 14.2237 127.511 15.5168 127.511 17.1265C127.511 18.7098 126.222 20.0293 124.618 20.0293C123.014 20.0293 121.726 18.7362 121.726 17.1265C121.726 15.5168 123.04 14.2237 124.618 14.2237Z" fill="#C89B3C"/>
<path d="M76.3119 32.6167L77.4163 34.9125V55.6806H82.2285V40.507L93.0363 55.6806H98.0589V32.6167H93.2467V48.0014L82.5178 32.6167H76.3119Z" fill="#C89B3C"/>
<path d="M112.68 33.5667C111.26 32.9861 109.209 32.6167 108.13 32.6167H100.294V55.6806H108.104C109.708 55.6806 111.233 55.3903 112.653 54.8098C114.073 54.2292 115.336 53.4111 116.414 52.382C117.492 51.3528 118.333 50.1389 118.938 48.7403C119.543 47.3417 119.859 45.8375 119.859 44.2014C119.859 42.5917 119.543 41.0611 118.938 39.6625C118.333 38.2639 117.492 37.05 116.414 36.0209C115.362 34.9917 114.126 34.1736 112.68 33.5667ZM114.257 46.8931C113.916 47.7375 113.416 48.45 112.811 49.057C112.206 49.6639 111.496 50.1653 110.655 50.5084C109.813 50.8778 108.919 51.0361 107.973 51.0361H105.238V37.2875H107.999C108.946 37.2875 109.84 37.4723 110.681 37.8417C111.523 38.2111 112.233 38.6861 112.837 39.2931C113.442 39.9 113.916 40.6389 114.284 41.4834C114.626 42.3278 114.81 43.225 114.81 44.175C114.81 45.1514 114.626 46.0486 114.257 46.8931Z" fill="#C89B3C"/>
<path d="M21.5367 32.6167V55.6806H35.2107V51.2209L26.533 51.1681V46.1278H33.2385L34.4482 41.7736H26.533V37.1028H35.2107V32.6167H21.5367Z" fill="#C89B3C"/>
<path d="M74.4185 41.7736H66.477V37.1028H75.1811V32.6167H61.507V55.6806H75.1811V51.2209L66.477 51.1681V46.1278H73.2089L74.4185 41.7736Z" fill="#C89B3C"/>
<path d="M85.647 26.6527C86.4359 27.4972 87.4089 28.1305 88.5396 28.5791C89.6704 29.0277 90.9852 29.2652 92.4315 29.2652C93.8778 29.2652 95.1926 29.0541 96.3233 28.6055C97.4804 28.1569 98.4533 27.5236 99.2422 26.7055C100.031 25.8875 100.662 24.8847 101.083 23.6972C101.53 22.5097 101.74 21.1902 101.74 19.7652L101.819 5.43608H96.7967L96.7178 19.475C96.7178 21.0319 96.3496 22.2458 95.6133 23.143C94.877 24.0402 93.8252 24.4889 92.4315 24.4625C91.0378 24.4625 89.9859 24.0139 89.2759 23.0902C88.5659 22.193 88.1978 20.9527 88.1978 19.3958L88.2767 5.3833H83.2541L83.1752 19.6333C83.1752 21.0847 83.3856 22.4041 83.8063 23.5916C84.2533 24.8055 84.8581 25.8083 85.647 26.6527Z" fill="#C89B3C"/>
<path d="M61.507 25.6236C62.5852 26.7056 63.8474 27.5764 65.2937 28.2098C66.7663 28.8431 68.3178 29.1598 70.027 29.1598C71.6837 29.1598 73.2089 28.8959 74.6026 28.3153C75.9963 27.7348 77.2059 26.9431 78.2315 25.9403C79.257 24.9375 80.0459 23.7236 80.6245 22.325C81.0452 21.3223 81.3082 20.2667 81.4396 19.1584C81.4922 18.7361 81.5448 16.8098 81.4922 15.9389H70.0796L68.0548 20.1084H76.1804C75.8648 21.4278 75.1548 22.5098 74.0504 23.3278C72.9459 24.1459 71.6311 24.5417 70.0796 24.5417C69.0804 24.5417 68.16 24.3306 67.3185 23.9611C66.4507 23.5653 65.7144 23.0375 65.0833 22.3778C64.4522 21.7181 63.9526 20.9528 63.5844 20.0556C63.2163 19.1584 63.0585 18.2084 63.0585 17.2056C63.0585 16.2028 63.2426 15.2528 63.6107 14.3556C63.9789 13.4584 64.4785 12.6931 65.1359 12.0334C65.767 11.3736 66.5296 10.8723 67.3711 10.5028C68.2126 10.1334 69.133 9.94864 70.1322 9.94864C71.4733 9.94864 72.6567 10.2653 73.6822 10.8459C74.7078 11.4528 75.523 12.2973 76.0752 13.432L80.5719 11.2945C79.6252 9.42087 78.2578 7.96947 76.417 6.91392C74.5763 5.85836 72.4989 5.3042 70.1585 5.3042C68.5019 5.3042 66.9504 5.59448 65.4778 6.22781C64.0052 6.83475 62.7167 7.70559 61.6122 8.76114C60.5078 9.84309 59.64 11.1098 59.0089 12.5348C58.3515 13.9861 58.0359 15.5167 58.0359 17.1528C58.0359 18.7889 58.3252 20.3459 58.9563 21.7973C59.5874 23.275 60.4289 24.5417 61.507 25.6236Z" fill="#C89B3C"/>
<path d="M4.57555 5.43604L5.7063 7.81104V26.2041L4.57555 28.5791H18.5915L19.8537 24.0666H10.6763V5.43604H4.57555Z" fill="#C89B3C"/>
<path d="M4.57555 32.5376L5.7063 34.939V53.3057L4.57555 55.707H18.5915L19.8537 51.1682H10.6763V32.5376H4.57555Z" fill="#C89B3C"/>
<path d="M21.5367 5.48901V28.5793H35.2107V24.1196L26.533 24.0668V19.0001H33.2385L34.4482 14.6723H26.533V10.0015H35.2107V5.48901H21.5367Z" fill="#C89B3C"/>
<path d="M104.002 5.48901V28.5793H117.676V24.1196L108.972 24.0668V19.0001H115.704L116.913 14.6723H108.972V10.0015H117.676V5.48901H104.002Z" fill="#C89B3C"/>
<path d="M41.89 28.5791L43.6256 24.0666H52.8293L54.6174 28.5791H59.7978L50.5678 5.43604H43.4941L44.9667 8.44437L36.8148 28.5791H41.89ZM48.3063 11.9013L51.1726 19.6596H45.3085L48.3063 11.9013Z" fill="#C89B3C"/>
<path d="M45.5715 51.1944C45.5189 51.168 45.44 51.1416 45.3874 51.1152C44.5196 50.7194 43.7833 50.1916 43.1522 49.5319C42.5211 48.8721 42.0215 48.1069 41.6533 47.2096C41.2852 46.3124 41.1274 45.3624 41.1274 44.3596C41.1274 43.3569 41.3115 42.4069 41.6796 41.5096C42.0478 40.6124 42.5474 39.8471 43.2048 39.1874C43.8359 38.5277 44.5985 38.0263 45.44 37.6569C46.2815 37.2874 47.2018 37.1027 48.2011 37.1027C49.5422 37.1027 50.7256 37.4194 51.7511 37.9999C52.7767 38.6069 53.5919 39.4513 54.1441 40.586L58.6407 38.4485C57.6941 36.5749 56.3267 35.1235 54.4859 34.068C52.6452 33.0124 50.5678 32.4583 48.2274 32.4583C46.5707 32.4583 45.0193 32.7485 43.5467 33.3819C42.0741 33.9888 40.7856 34.8596 39.6811 35.9152C38.5767 36.9971 37.7089 38.2638 37.0778 39.6888C36.4204 41.1402 36.1048 42.6708 36.1048 44.3069C36.1048 45.943 36.3941 47.4999 37.0252 48.9513C37.6563 50.4027 38.4978 51.6694 39.5759 52.7513C40.6015 53.7805 41.8111 54.6249 43.1785 55.2319L45.5715 51.1944Z" fill="#C89B3C"/>
<path d="M59.5611 43.1194H48.1222L46.0974 47.2888H54.223C53.9074 48.6083 53.1974 49.6902 52.093 50.5083C50.9885 51.3263 49.6737 51.7222 48.1222 51.7222C47.4385 51.7222 46.7811 51.6166 46.15 51.4319L45.0455 55.9708C46.0185 56.2083 47.0178 56.3402 48.0696 56.3402C49.7263 56.3402 51.2515 56.0763 52.6452 55.4958C54.0389 54.9152 55.2485 54.1236 56.2741 53.1208C57.2996 52.118 58.0885 50.9041 58.667 49.5055C59.0878 48.5027 59.3507 47.4472 59.4822 46.3388C59.5348 45.9166 59.6137 43.9902 59.5611 43.1194Z" fill="#C89B3C"/>
</g>
<defs>
<clipPath id="clip0_908_23">
<rect width="142" height="56" fill="white"/>
</clipPath>
</defs>
</svg>
