<svg width="6" height="209" viewBox="0 0 6 209" fill="none" xmlns="http://www.w3.org/2000/svg">
<path fill-rule="evenodd" clip-rule="evenodd" d="M3 6C4.65685 6 6 4.65685 6 3C6 1.34315 4.65685 0 3 0C1.34315 0 0 1.34315 0 3C0 4.65685 1.34315 6 3 6ZM3 35C4.65685 35 6 33.6569 6 32C6 30.3431 4.65685 29 3 29C1.34315 29 0 30.3431 0 32C0 33.6569 1.34315 35 3 35ZM6 61C6 62.6569 4.65685 64 3 64C1.34315 64 0 62.6569 0 61C0 59.3431 1.34315 58 3 58C4.65685 58 6 59.3431 6 61ZM3 93C4.65685 93 6 91.6569 6 90C6 88.3431 4.65685 87 3 87C1.34315 87 0 88.3431 0 90C0 91.6569 1.34315 93 3 93ZM6 119C6 120.657 4.65685 122 3 122C1.34315 122 0 120.657 0 119C0 117.343 1.34315 116 3 116C4.65685 116 6 117.343 6 119ZM3 151C4.65685 151 6 149.657 6 148C6 146.343 4.65685 145 3 145C1.34315 145 0 146.343 0 148C0 149.657 1.34315 151 3 151ZM6 177C6 178.657 4.65685 180 3 180C1.34315 180 0 178.657 0 177C0 175.343 1.34315 174 3 174C4.65685 174 6 175.343 6 177ZM3 209C4.65685 209 6 207.657 6 206C6 204.343 4.65685 203 3 203C1.34315 203 0 204.343 0 206C0 207.657 1.34315 209 3 209Z" fill="url(#paint0_linear_927_61)"/>
<defs>
<linearGradient id="paint0_linear_927_61" x1="-24" y1="173.874" x2="-24" y2="23.7101" gradientUnits="userSpaceOnUse">
<stop stop-color="#F4C258"/>
<stop offset="1" stop-color="white" stop-opacity="0"/>
<stop offset="1" stop-color="#F4C258" stop-opacity="0.35"/>
</linearGradient>
</defs>
</svg>
